<svg id="visual" viewBox="0 0 900 600" width="900" height="600" xmlns="http://www.w3.org/2000/svg" xmlns:xlink="http://www.w3.org/1999/xlink" version="1.1"><rect x="0" y="0" width="900" height="600" fill="#32cd32"></rect><defs><linearGradient id="grad1_0" x1="33.3%" y1="0%" x2="100%" y2="100%"><stop offset="20%" stop-color="#32cd32" stop-opacity="1"></stop><stop offset="80%" stop-color="#32cd32" stop-opacity="1"></stop></linearGradient></defs><defs><linearGradient id="grad2_0" x1="0%" y1="0%" x2="66.7%" y2="100%"><stop offset="20%" stop-color="#32cd32" stop-opacity="1"></stop><stop offset="80%" stop-color="#32cd32" stop-opacity="1"></stop></linearGradient></defs><g transform="translate(900, 0)"><path d="M0 486.7C-50.3 452.6 -100.7 418.5 -166.5 401.9C-232.2 385.2 -313.5 386 -344.2 344.2C-374.9 302.4 -355.1 217.9 -370.5 153.5C-385.8 89 -436.3 44.5 -486.7 0L0 0Z" fill="#f4f4f4"></path></g><g transform="translate(0, 600)"><path d="M0 -486.7C56.2 -463.7 112.5 -440.6 174.5 -421.3C236.5 -401.9 304.4 -386.3 344.2 -344.2C384 -302.1 395.7 -233.6 414.8 -171.8C433.9 -110.1 460.3 -55 486.7 0L0 0Z" fill="#f4f4f4"></path></g></svg>